<svg width="99" height="85" viewBox="0 0 99 85" fill="none" xmlns="http://www.w3.org/2000/svg">
<path d="M17.7197 37.3018V48.8711C17.7197 57.3214 17.7197 61.5468 18.8308 64.9658C21.0762 71.8766 26.4943 77.2947 33.4051 79.5401C36.8244 80.6511 41.0497 80.6511 49.4996 80.6511C57.9499 80.6511 62.1753 80.6511 65.5943 79.5401C72.5051 77.2947 77.9232 71.8766 80.1687 64.9658C81.2796 61.5468 81.2796 57.3214 81.2796 48.8711V37.3163M81.2796 37.3163C76.9339 39.0778 71.5649 40.991 65.1758 43.2728L55.6082 46.6901C52.5845 47.7697 51.0732 48.3099 49.5 48.3099C47.9274 48.3099 46.4156 47.7697 43.3924 46.6901L33.8247 43.2728C13.8457 36.1377 3.8562 32.5698 3.8562 26.171C3.8562 19.7722 13.8457 16.2044 33.8247 9.06899L43.3924 5.65196C46.4156 4.57212 47.9274 4.03223 49.5 4.03223C51.0732 4.03223 52.5845 4.57212 55.6082 5.65196L65.1758 9.06899C85.1549 16.2044 95.1443 19.7722 95.1443 26.171C95.1443 30.5235 90.5239 33.5699 81.2796 37.3163Z" stroke="white" stroke-width="6.81" stroke-linecap="round"/>
<path d="M42.6923 2.28627L32.3955 5.96398C22.6456 9.44603 14.9829 12.1827 9.78387 14.8721C4.75881 17.4715 0.451172 20.8127 0.451172 26.1712V58.0044C0.451172 59.8849 2.21918 61.3563 4.0997 61.3563C5.98026 61.3563 7.5047 59.8318 7.5047 57.9513V36.1988C6.196 35.4048 4.98559 34.5381 3.95024 33.572C1.83555 31.5984 0.451172 29.209 0.451172 26.1712C0.451172 24.2906 2.21918 22.7662 4.0997 22.7662C4.43343 22.7662 4.74828 22.8142 5.04043 22.9037L4.10002 23.3269L4.81116 26.1714H7.26144C7.26144 27.2118 7.94853 28.8538 12.913 31.4219C17.653 33.8739 24.8763 36.4617 34.9702 40.0669L44.5378 43.4837C47.7839 44.6432 48.6538 44.9052 49.5005 44.9052C50.3472 44.9052 51.217 44.6432 54.4631 43.4837L64.3504 39.9525C70.6219 37.7129 75.808 35.8606 80.0011 34.1612C84.5892 32.3016 87.6855 30.7444 89.605 29.2706C91.4482 27.8555 91.7397 26.8952 91.7397 26.1714H98.5493C98.5493 26.1714 98.5493 26.1715 98.5493 26.1714C98.5493 20.8129 94.2417 17.4715 89.2164 14.8721C84.0176 12.1827 76.3546 9.44603 66.6049 5.96394L56.3082 2.28631C53.7213 1.35997 51.676 0.627441 49.5 0.627441C47.3244 0.627441 45.2792 1.35997 42.6923 2.28627Z" fill="white"/>
<path d="M98.5656 26.7031C98.4257 29.1978 97.3148 31.2578 95.6736 32.9824C97.3334 31.2478 98.428 29.2012 98.5656 26.7031Z" fill="white"/>
</svg>
