<svg width="20" height="20" viewBox="0 0 20 20" fill="none" xmlns="http://www.w3.org/2000/svg">
<path d="M9.36392 1.83368C9.59934 1.26767 10.4012 1.26768 10.6366 1.83369L12.5729 6.48918C12.6722 6.7278 12.8966 6.89083 13.1542 6.91149L18.1802 7.31441C18.7913 7.36341 19.039 8.12597 18.5734 8.52475L14.7442 11.805C14.5479 11.9731 14.4622 12.2369 14.5222 12.4882L15.6921 17.3927C15.8343 17.9891 15.1856 18.4603 14.6625 18.1408L10.3595 15.5126C10.139 15.3779 9.86159 15.3779 9.64109 15.5126L5.33809 18.1408C4.81494 18.4603 4.16626 17.9891 4.30849 17.3927L5.4784 12.4882C5.53837 12.2369 5.45265 11.9731 5.25639 11.805L1.4271 8.52475C0.961545 8.12597 1.20932 7.36341 1.82038 7.31441L6.84638 6.91149C7.10398 6.89083 7.32838 6.7278 7.42763 6.48918L9.36392 1.83368Z" fill="#F3C63F"/>
</svg>
