<svg width="16" height="18" viewBox="0 0 16 18" fill="none" xmlns="http://www.w3.org/2000/svg">
<path d="M7.99997 6.1302C6.43148 6.1302 5.15997 4.85868 5.15997 3.2902C5.15997 1.72171 6.43148 0.450195 7.99997 0.450195C9.56846 0.450195 10.84 1.72171 10.84 3.2902C10.84 4.85868 9.56846 6.1302 7.99997 6.1302Z" fill="#0690EA"/>
<path d="M15.7489 14.4118L13.2831 8.86461C12.9411 8.09567 12.1785 7.60015 11.337 7.6001L4.66298 7.6001C3.82144 7.60015 3.05882 8.09567 2.71687 8.86461L0.251042 14.4118C0.140808 14.66 0.18173 14.9492 0.356465 15.157C0.531201 15.3648 0.80915 15.4548 1.07251 15.3888L3.73998 14.7214L3.73998 17.5401L12.26 17.5401V14.7214L14.9275 15.3888C15.1908 15.4548 15.4688 15.3648 15.6435 15.157C15.8182 14.9492 15.8592 14.66 15.7489 14.4118ZM2.14035 13.6578L3.73998 10.0581L3.73998 13.2581L2.14035 13.6578ZM9.24745 13.9688L10.84 14.3664V15.4101L7.99998 16.1201L5.15998 15.4101V14.3664L6.75251 13.9688L6.40745 12.5914L5.15998 12.9031V10.4401L7.99998 11.1501L10.84 10.4401L10.84 12.9031L9.59251 12.5914L9.24745 13.9688ZM12.26 13.2588L12.26 10.0581L13.8596 13.6578L12.26 13.2588Z" fill="#0690EA"/>
</svg>
